<?xml version="1.0" encoding="iso-8859-1"?>
<!-- Generator: Adobe Illustrator 19.0.0, SVG Export Plug-In . SVG Version: 6.00 Build 0)  -->
<svg version="1.1" id="Capa_1" xmlns="http://www.w3.org/2000/svg" xmlns:xlink="http://www.w3.org/1999/xlink" x="0px" y="0px"
	 viewBox="0 0 512 512" style="enable-background:new 0 0 512 512;" xml:space="preserve">
<g>
	<g>
		<path d="M362.198,109.862l-19.264,11.122V95.593h24.023v-7.507c0-14.799-10.251-27.243-24.023-30.621V0h-15.015v57.465
			c-13.772,3.377-24.023,15.821-24.023,30.621v7.507h24.023v34.059L30.185,301.549l112.835,195.436h-39.822V512h200.195v-15.015
			H170.147l48.916-28.241l-7.507-13.003l-56.257,32.479L50.697,307.045l306.006-176.673l10.119,17.528l13.003-7.507L362.198,109.862
			z M320.716,80.579c2.74-5.344,8.304-9.009,14.71-9.009c6.405,0,11.971,3.665,14.709,9.009H320.716z"/>
	</g>
</g>
<g>
	<g>
		<polygon points="389.067,156.4 376.063,163.907 461.305,311.548 227.572,446.495 235.08,459.498 481.815,317.044 		"/>
	</g>
</g>
<g>
	<g>
		<rect x="71.17" y="496.985" width="16.016" height="15.015"/>
	</g>
</g>
<g>
	<g>
		<rect x="319.412" y="496.985" width="16.016" height="15.015"/>
	</g>
</g>
<g>
	<g>
		<rect x="351.443" y="496.985" width="16.016" height="15.015"/>
	</g>
</g>
<g>
	<g>
		<rect x="383.474" y="496.985" width="64.063" height="15.015"/>
	</g>
</g>
<g>
	<g>
		<path d="M158.754,160.156v-23.523h-25.208c-2.113-4.713-6.839-8.008-12.329-8.008h-10.51V0H95.692v128.626h-10.51
			c-5.49,0-10.216,3.295-12.329,8.008H47.646v23.523H62.66v-8.508h9.009v17.017H47.646v23.523H62.66v-8.508h9.009v2.502
			c0,7.451,6.062,13.513,13.513,13.513h10.51v8.508h15.015v-8.508h10.51c7.451,0,13.513-6.062,13.513-13.513v-2.502h9.009v8.508
			h15.015v-23.523h-24.023v-17.017h9.009v8.508H158.754z M119.716,184.68h-9.009v-8.508H95.692v8.508h-9.009v-41.04h33.032V184.68z"
			/>
	</g>
</g>
<g>
	<g>
		<polygon points="327.919,160.156 327.919,229.118 324.309,232.727 306.504,232.727 302.869,229.091 302.673,205.562 
			307.187,208.289 314.953,195.439 287.435,178.814 287.905,235.363 300.285,247.742 330.528,247.742 342.934,235.336 
			342.934,160.156 		"/>
	</g>
</g>
<g>
	<g>
		<path d="M166.054,282.631c-3.173-5.496-10.23-7.389-15.725-4.214l-72.384,41.791l19.519,33.808l6.256,10.836
			c1.537,2.663,4.02,4.567,6.99,5.363c0.991,0.265,1.997,0.396,2.997,0.396c1.994,0,3.964-0.523,5.737-1.547l72.384-41.791
			L166.054,282.631z M154.801,293.172l4.505,7.803L130.7,317.491l-4.504-7.803L154.801,293.172z M102.961,333.507l-4.504-7.803
			l14.736-8.508l4.504,7.803L102.961,333.507z M114.971,354.311l-4.504-7.802l21.671-12.512l4.504,7.802L114.971,354.311z
			 M145.142,326.49l21.672-12.512l4.504,7.802l-21.672,12.512L145.142,326.49z"/>
	</g>
</g>
<g>
	<g>
		<path d="M262.025,239.85l-74.905,45.236l19.52,33.809l74.905-45.235L262.025,239.85z M211.987,298.127l-4.503-7.8l49.194-29.71
			l4.503,7.801L211.987,298.127z"/>
	</g>
</g>
<g>
	<g>
		<path d="M428.299,288.417l-17.767-30.774l-58.514,33.783c-2.663,1.537-4.567,4.019-5.363,6.99c-0.796,2.97-0.387,6.072,1.15,8.735
			l17.767,30.774l58.514-33.783c2.663-1.537,4.567-4.019,5.363-6.99C430.245,294.181,429.837,291.079,428.299,288.417z
			 M371.067,317.414l-8.508-14.737l42.478-24.524l8.508,14.737L371.067,317.414z"/>
	</g>
</g>
<g>
	<g>
		<rect x="151.735" y="438.273" transform="matrix(0.866 -0.5 0.5 0.866 -200.9568 141.6019)" width="24.023" height="15.014"/>
	</g>
</g>
<g>
	<g>
		<rect x="186.943" y="420.249" transform="matrix(0.866 -0.5 0.5 0.866 -187.7629 154.788)" width="16.015" height="15.014"/>
	</g>
</g>
<g>
	<g>
		<rect x="277.098" y="368.2" transform="matrix(0.866 -0.5 0.5 0.866 -149.6588 192.8929)" width="16.015" height="15.014"/>
	</g>
</g>
<g>
	<g>
		<rect x="212.004" y="394.228" transform="matrix(0.866 -0.5 0.5 0.866 -168.7128 173.8429)" width="56.054" height="15.014"/>
	</g>
</g>
<g>
	<g>
		<rect x="303.764" y="348.178" transform="matrix(0.866 -0.5 0.5 0.866 -135.0018 207.5476)" width="32.031" height="15.014"/>
	</g>
</g>
<g>
	<g>
		<rect x="205.603" y="372.498" transform="matrix(0.866 -0.5 0.5 0.866 -161.3874 157.7213)" width="16.015" height="15.014"/>
	</g>
</g>
<g>
	<g>
		<rect x="162.916" y="392.511" transform="matrix(0.866 -0.5 0.5 0.866 -176.04 143.0625)" width="32.031" height="15.014"/>
	</g>
</g>
<g>
	<g>
		<rect x="281.886" y="328.454" transform="matrix(0.866 -0.5 0.5 0.866 -129.1444 189.9634)" width="16.015" height="15.014"/>
	</g>
</g>
<g>
	<g>
		<rect x="239.206" y="348.475" transform="matrix(0.866 -0.5 0.5 0.866 -143.8004 175.3079)" width="32.03" height="15.014"/>
	</g>
</g>
<g>
</g>
<g>
</g>
<g>
</g>
<g>
</g>
<g>
</g>
<g>
</g>
<g>
</g>
<g>
</g>
<g>
</g>
<g>
</g>
<g>
</g>
<g>
</g>
<g>
</g>
<g>
</g>
<g>
</g>
</svg>
